<mxfile host="app.diagrams.net" modified="2022-09-12T15:14:11.287Z" agent="5.0 (X11; Linux x86_64) AppleWebKit/537.36 (KHTML, like Gecko) Chrome/105.0.0.0 Safari/537.36" etag="W9nDnG8QReyqIcSR5Dj4" version="20.3.0" type="github">
  <diagram id="8K-jhs-ddFAJDeDhg4IT" name="Page-1">
    <mxGraphModel dx="1662" dy="754" grid="1" gridSize="10" guides="1" tooltips="1" connect="1" arrows="1" fold="1" page="1" pageScale="1" pageWidth="1400" pageHeight="850" math="0" shadow="0">
      <root>
        <mxCell id="0" />
        <mxCell id="1" parent="0" />
        <mxCell id="TMFdOIJDFbBw9OrUmev--84" style="edgeStyle=orthogonalEdgeStyle;rounded=0;orthogonalLoop=1;jettySize=auto;html=1;entryX=0;entryY=0.78;entryDx=0;entryDy=0;entryPerimeter=0;" edge="1" parent="1" source="TMFdOIJDFbBw9OrUmev--6" target="TMFdOIJDFbBw9OrUmev--65">
          <mxGeometry relative="1" as="geometry" />
        </mxCell>
        <mxCell id="TMFdOIJDFbBw9OrUmev--6" value="EC2" style="points=[[0,0],[0.25,0],[0.5,0],[0.75,0],[1,0],[1,0.25],[1,0.5],[1,0.75],[1,1],[0.75,1],[0.5,1],[0.25,1],[0,1],[0,0.75],[0,0.5],[0,0.25]];outlineConnect=0;gradientColor=none;html=1;whiteSpace=wrap;fontSize=12;fontStyle=0;container=1;pointerEvents=0;collapsible=0;recursiveResize=0;shape=mxgraph.aws4.group;grIcon=mxgraph.aws4.group_ec2_instance_contents;strokeColor=#D86613;fillColor=none;verticalAlign=top;align=left;spacingLeft=30;fontColor=#D86613;dashed=0;" vertex="1" parent="1">
          <mxGeometry x="55" y="80" width="120" height="160" as="geometry" />
        </mxCell>
        <mxCell id="TMFdOIJDFbBw9OrUmev--7" value="" style="sketch=0;outlineConnect=0;fontColor=#232F3E;gradientColor=none;fillColor=#2E27AD;strokeColor=none;dashed=0;verticalLabelPosition=bottom;verticalAlign=top;align=center;html=1;fontSize=12;fontStyle=0;aspect=fixed;pointerEvents=1;shape=mxgraph.aws4.rds_postgresql_instance;" vertex="1" parent="TMFdOIJDFbBw9OrUmev--6">
          <mxGeometry x="10" y="52" width="78" height="78" as="geometry" />
        </mxCell>
        <mxCell id="TMFdOIJDFbBw9OrUmev--78" style="edgeStyle=orthogonalEdgeStyle;rounded=0;orthogonalLoop=1;jettySize=auto;html=1;entryX=0.5;entryY=0;entryDx=0;entryDy=0;entryPerimeter=0;" edge="1" parent="1" source="TMFdOIJDFbBw9OrUmev--20" target="TMFdOIJDFbBw9OrUmev--57">
          <mxGeometry relative="1" as="geometry" />
        </mxCell>
        <mxCell id="TMFdOIJDFbBw9OrUmev--86" style="edgeStyle=orthogonalEdgeStyle;rounded=0;orthogonalLoop=1;jettySize=auto;html=1;entryX=0;entryY=0.5;entryDx=0;entryDy=0;" edge="1" parent="1" source="TMFdOIJDFbBw9OrUmev--20" target="TMFdOIJDFbBw9OrUmev--66">
          <mxGeometry relative="1" as="geometry">
            <Array as="points">
              <mxPoint x="200" y="355" />
              <mxPoint x="200" y="197" />
            </Array>
          </mxGeometry>
        </mxCell>
        <mxCell id="TMFdOIJDFbBw9OrUmev--20" value="&lt;div style=&quot;text-align: center;&quot;&gt;&lt;span style=&quot;background-color: initial;&quot;&gt;ECS Cluster 1&lt;/span&gt;&lt;/div&gt;" style="points=[[0,0],[0.25,0],[0.5,0],[0.75,0],[1,0],[1,0.25],[1,0.5],[1,0.75],[1,1],[0.75,1],[0.5,1],[0.25,1],[0,1],[0,0.75],[0,0.5],[0,0.25]];outlineConnect=0;gradientColor=none;html=1;whiteSpace=wrap;fontSize=12;fontStyle=0;container=1;pointerEvents=0;collapsible=0;recursiveResize=0;shape=mxgraph.aws4.group;grIcon=mxgraph.aws4.group_aws_cloud_alt;strokeColor=#FF8000;fillColor=none;verticalAlign=top;align=left;spacingLeft=30;fontColor=#232F3E;dashed=0;" vertex="1" parent="1">
          <mxGeometry x="40" y="270" width="150" height="170" as="geometry" />
        </mxCell>
        <mxCell id="TMFdOIJDFbBw9OrUmev--23" value="Fargate" style="sketch=0;points=[[0,0,0],[0.25,0,0],[0.5,0,0],[0.75,0,0],[1,0,0],[0,1,0],[0.25,1,0],[0.5,1,0],[0.75,1,0],[1,1,0],[0,0.25,0],[0,0.5,0],[0,0.75,0],[1,0.25,0],[1,0.5,0],[1,0.75,0]];outlineConnect=0;fontColor=#232F3E;gradientColor=#F78E04;gradientDirection=north;fillColor=#D05C17;strokeColor=#ffffff;dashed=0;verticalLabelPosition=bottom;verticalAlign=top;align=center;html=1;fontSize=12;fontStyle=0;aspect=fixed;shape=mxgraph.aws4.resourceIcon;resIcon=mxgraph.aws4.fargate;" vertex="1" parent="TMFdOIJDFbBw9OrUmev--20">
          <mxGeometry x="40" y="60" width="78" height="78" as="geometry" />
        </mxCell>
        <mxCell id="TMFdOIJDFbBw9OrUmev--33" value="LAMBDA 1" style="sketch=0;points=[[0,0,0],[0.25,0,0],[0.5,0,0],[0.75,0,0],[1,0,0],[0,1,0],[0.25,1,0],[0.5,1,0],[0.75,1,0],[1,1,0],[0,0.25,0],[0,0.5,0],[0,0.75,0],[1,0.25,0],[1,0.5,0],[1,0.75,0]];outlineConnect=0;fontColor=#232F3E;gradientColor=#F78E04;gradientDirection=north;fillColor=#D05C17;strokeColor=#ffffff;dashed=0;verticalLabelPosition=bottom;verticalAlign=top;align=center;html=1;fontSize=12;fontStyle=0;aspect=fixed;shape=mxgraph.aws4.resourceIcon;resIcon=mxgraph.aws4.lambda;" vertex="1" parent="1">
          <mxGeometry x="251" y="521" width="78" height="78" as="geometry" />
        </mxCell>
        <mxCell id="TMFdOIJDFbBw9OrUmev--41" value="" style="sketch=0;outlineConnect=0;fontColor=#232F3E;gradientColor=none;fillColor=default;strokeColor=none;dashed=0;verticalLabelPosition=bottom;verticalAlign=top;align=center;html=1;fontSize=12;fontStyle=0;aspect=fixed;pointerEvents=1;shape=mxgraph.aws4.ecs_service;" vertex="1" parent="1">
          <mxGeometry x="1148.75" y="521" width="16.25" height="20" as="geometry" />
        </mxCell>
        <mxCell id="TMFdOIJDFbBw9OrUmev--79" style="edgeStyle=orthogonalEdgeStyle;rounded=0;orthogonalLoop=1;jettySize=auto;html=1;exitX=0.5;exitY=1;exitDx=0;exitDy=0;entryX=0.5;entryY=0;entryDx=0;entryDy=0;entryPerimeter=0;" edge="1" parent="1" source="TMFdOIJDFbBw9OrUmev--49" target="TMFdOIJDFbBw9OrUmev--33">
          <mxGeometry relative="1" as="geometry" />
        </mxCell>
        <mxCell id="TMFdOIJDFbBw9OrUmev--85" style="edgeStyle=orthogonalEdgeStyle;rounded=0;orthogonalLoop=1;jettySize=auto;html=1;" edge="1" parent="1" source="TMFdOIJDFbBw9OrUmev--49" target="TMFdOIJDFbBw9OrUmev--66">
          <mxGeometry relative="1" as="geometry" />
        </mxCell>
        <mxCell id="TMFdOIJDFbBw9OrUmev--49" value="&lt;span style=&quot;text-align: center;&quot;&gt;ECS Cluster 2&lt;/span&gt;" style="points=[[0,0],[0.25,0],[0.5,0],[0.75,0],[1,0],[1,0.25],[1,0.5],[1,0.75],[1,1],[0.75,1],[0.5,1],[0.25,1],[0,1],[0,0.75],[0,0.5],[0,0.25]];outlineConnect=0;gradientColor=none;html=1;whiteSpace=wrap;fontSize=12;fontStyle=0;container=1;pointerEvents=0;collapsible=0;recursiveResize=0;shape=mxgraph.aws4.group;grIcon=mxgraph.aws4.group_aws_cloud_alt;strokeColor=#FF8000;fillColor=none;verticalAlign=top;align=left;spacingLeft=30;fontColor=#232F3E;dashed=0;" vertex="1" parent="1">
          <mxGeometry x="220" y="270" width="140" height="170" as="geometry" />
        </mxCell>
        <mxCell id="TMFdOIJDFbBw9OrUmev--50" value="Fargate" style="sketch=0;points=[[0,0,0],[0.25,0,0],[0.5,0,0],[0.75,0,0],[1,0,0],[0,1,0],[0.25,1,0],[0.5,1,0],[0.75,1,0],[1,1,0],[0,0.25,0],[0,0.5,0],[0,0.75,0],[1,0.25,0],[1,0.5,0],[1,0.75,0]];outlineConnect=0;fontColor=#232F3E;gradientColor=#F78E04;gradientDirection=north;fillColor=#D05C17;strokeColor=#ffffff;dashed=0;verticalLabelPosition=bottom;verticalAlign=top;align=center;html=1;fontSize=12;fontStyle=0;aspect=fixed;shape=mxgraph.aws4.resourceIcon;resIcon=mxgraph.aws4.fargate;" vertex="1" parent="TMFdOIJDFbBw9OrUmev--49">
          <mxGeometry x="30" y="60" width="78" height="78" as="geometry" />
        </mxCell>
        <mxCell id="TMFdOIJDFbBw9OrUmev--57" value="S3 Bucket" style="sketch=0;points=[[0,0,0],[0.25,0,0],[0.5,0,0],[0.75,0,0],[1,0,0],[0,1,0],[0.25,1,0],[0.5,1,0],[0.75,1,0],[1,1,0],[0,0.25,0],[0,0.5,0],[0,0.75,0],[1,0.25,0],[1,0.5,0],[1,0.75,0]];outlineConnect=0;fontColor=#232F3E;gradientColor=#60A337;gradientDirection=north;fillColor=#277116;strokeColor=#ffffff;dashed=0;verticalLabelPosition=bottom;verticalAlign=top;align=center;html=1;fontSize=12;fontStyle=0;aspect=fixed;shape=mxgraph.aws4.resourceIcon;resIcon=mxgraph.aws4.s3;" vertex="1" parent="1">
          <mxGeometry x="76" y="522" width="78" height="78" as="geometry" />
        </mxCell>
        <mxCell id="TMFdOIJDFbBw9OrUmev--60" value="&lt;span style=&quot;text-align: center;&quot;&gt;&lt;b&gt;ECS Cluster - Prometheus and Grafana&lt;/b&gt;&lt;/span&gt;" style="points=[[0,0],[0.25,0],[0.5,0],[0.75,0],[1,0],[1,0.25],[1,0.5],[1,0.75],[1,1],[0.75,1],[0.5,1],[0.25,1],[0,1],[0,0.75],[0,0.5],[0,0.25]];outlineConnect=0;gradientColor=none;html=1;whiteSpace=wrap;fontSize=12;fontStyle=0;container=1;pointerEvents=0;collapsible=0;recursiveResize=0;shape=mxgraph.aws4.group;grIcon=mxgraph.aws4.group_aws_cloud_alt;strokeColor=#66B2FF;fillColor=none;verticalAlign=top;align=left;spacingLeft=30;fontColor=#232F3E;dashed=0;" vertex="1" parent="1">
          <mxGeometry x="510" y="280" width="180" height="160" as="geometry" />
        </mxCell>
        <mxCell id="TMFdOIJDFbBw9OrUmev--61" value="" style="sketch=0;outlineConnect=0;fontColor=#232F3E;gradientColor=none;fillColor=#FFFFFF;strokeColor=none;dashed=0;verticalLabelPosition=bottom;verticalAlign=top;align=center;html=1;fontSize=12;fontStyle=0;aspect=fixed;pointerEvents=1;shape=mxgraph.aws4.ecs_service;" vertex="1" parent="TMFdOIJDFbBw9OrUmev--60">
          <mxGeometry x="152.75" y="108" width="16.25" height="20" as="geometry" />
        </mxCell>
        <mxCell id="TMFdOIJDFbBw9OrUmev--62" value="Monitoring" style="sketch=0;points=[[0,0,0],[0.25,0,0],[0.5,0,0],[0.75,0,0],[1,0,0],[0,1,0],[0.25,1,0],[0.5,1,0],[0.75,1,0],[1,1,0],[0,0.25,0],[0,0.5,0],[0,0.75,0],[1,0.25,0],[1,0.5,0],[1,0.75,0]];outlineConnect=0;fontColor=#232F3E;gradientColor=#F78E04;gradientDirection=north;fillColor=#D05C17;strokeColor=#ffffff;dashed=0;verticalLabelPosition=bottom;verticalAlign=top;align=center;html=1;fontSize=12;fontStyle=0;aspect=fixed;shape=mxgraph.aws4.resourceIcon;resIcon=mxgraph.aws4.fargate;" vertex="1" parent="TMFdOIJDFbBw9OrUmev--60">
          <mxGeometry x="52" y="52" width="76" height="76" as="geometry" />
        </mxCell>
        <mxCell id="TMFdOIJDFbBw9OrUmev--64" value="" style="group" vertex="1" connectable="0" parent="1">
          <mxGeometry x="230" y="90" width="120" height="120" as="geometry" />
        </mxCell>
        <mxCell id="TMFdOIJDFbBw9OrUmev--65" value="" style="outlineConnect=0;dashed=0;verticalLabelPosition=bottom;verticalAlign=top;align=center;html=1;shape=mxgraph.aws3.cloudwatch;fillColor=#759C3E;gradientColor=none;" vertex="1" parent="TMFdOIJDFbBw9OrUmev--64">
          <mxGeometry x="18.75" width="82.5" height="93" as="geometry" />
        </mxCell>
        <mxCell id="TMFdOIJDFbBw9OrUmev--66" value="&lt;span style=&quot;color: rgb(35, 47, 62); font-family: Helvetica; font-size: 12px; font-style: normal; font-variant-ligatures: normal; font-variant-caps: normal; font-weight: 400; letter-spacing: normal; orphans: 2; text-align: center; text-indent: 0px; text-transform: none; widows: 2; word-spacing: 0px; -webkit-text-stroke-width: 0px; background-color: rgb(248, 249, 250); text-decoration-thickness: initial; text-decoration-style: initial; text-decoration-color: initial; float: none; display: inline !important;&quot;&gt;Amazon CloudWatch&lt;/span&gt;" style="text;whiteSpace=wrap;html=1;" vertex="1" parent="TMFdOIJDFbBw9OrUmev--64">
          <mxGeometry y="93" width="120" height="27" as="geometry" />
        </mxCell>
      </root>
    </mxGraphModel>
  </diagram>
</mxfile>
